GIL11_free_grf.mot																		
version=4																		
nRows=91																		
nColumns=19																		
inDegrees=yes																		
endheader																		
																		
time	     ground_force_vx	     ground_force_vy	     ground_force_vz	     ground_force_px	     ground_force_py	     ground_force_pz	     1_ground_force_vx	     1_ground_force_vy	     1_ground_force_vz	     1_ground_force_px	     1_ground_force_py	     1_ground_force_pz	     ground_torque_x	     ground_torque_y	     ground_torque_z	     1_ground_torque_x	    1_ground_torque_y	     1_ground_torque_z
0.13333328	0	0	0	1.11448792	0	0.04530319	-102.3410293	710.2059364	45.36270925	0.70152191	0	-0.05584741	0	0	0	0	1.7118584	0
0.14166661	0	0	0	1.11549573	0	0.04509628	-96.78234779	703.8103722	45.97915054	0.70301001	0	-0.05632111	0	0	0	0	1.50530127	0
0.14999995	0	0	0	1.11656311	0	0.04486433	-90.36015887	693.788273	46.23187589	0.70483044	0	-0.05688391	0	0	0	0	1.22749707	0
0.15833327	0	0	0	1.11771851	0	0.04461234	-83.60933655	681.2835559	45.99001324	0.706789	0	-0.05747675	0	0	0	0	0.89131348	0
0.16666661	0	0	0	1.11898889	0	0.04434412	-76.71312355	667.8767967	45.46351124	0.70877942	0	-0.05807809	0	0	0	0	0.52231641	0
0.17499994	0	0	0	1.12039514	0	0.0440619	-69.86680033	654.2005495	45.08755591	0.7107923	0	-0.05872	0	0	0	0	0.14628613	0
0.18333328	0	0	0	1.12195288	0	0.0437807	-63.22464916	639.8601832	45.05508311	0.71289246	0	-0.05941119	0	0	0	0	-0.21558911	0
0.1916666	0	0	0	1.12366895	0	0.0435182	-56.76381544	624.2235219	45.21118373	0.7152088	0	-0.06014642	0	0	0	0	-0.53270093	0
0.19999994	0	0	0	1.12551587	0	0.04329091	-50.44714664	607.1175322	45.48848406	0.71787555	0	-0.06091641	0	0	0	0	-0.76503589	0
0.20833328	0	0	0	1.12746704	0	0.04312553	-44.49274501	588.6780179	46.01247394	0.72099603	0	-0.06174512	0	0	0	0	-0.8868811	0
0.21666661	0	0	0	1.12949292	0	0.04304465	-39.44548375	569.4787152	46.83281905	0.72461542	0	-0.06262857	0	0	0	0	-0.89876123	0
0.22499993	0	0	0	1.13156238	0	0.04303732	-35.73109982	550.5739223	47.73933916	0.72869214	0	-0.06351791	0	0	0	0	-0.82863013	0
0.23333327	0	0	0	1.13362842	0	0.04309326	-33.1618358	533.2891713	48.35631249	0.73301514	0	-0.06433374	0	0	0	0	-0.72207788	0
0.24166662	0	0	0	1.13565112	0	0.04319557	-31.0622539	518.8910865	48.36228993	0.73728656	0	-0.06499283	0	0	0	0	-0.62394775	0
0.24999994	0	0	0	1.13764526	0	0.04332684	-28.88024112	508.2169025	47.65545786	0.74123157	0	-0.06543182	0	0	0	0	-0.56237891	0
0.25833327	0	0	0	1.13966162	0	0.04347189	-26.44872836	501.2627817	46.31450719	0.74475464	0	-0.06566541	0	0	0	0	-0.56266797	0
0.26666659	0	0	0	1.14175134	0	0.04364397	-23.84996944	497.628658	44.35781296	0.74790527	0	-0.06573196	0	0	0	0	-0.63982739	0
0.27499995	0	0	0	1.14396619	0	0.0438782	-21.22222701	496.7495524	41.7931237	0.75076898	0	-0.06570383	0	0	0	0	-0.79189612	0
0.28333327	0	0	0	1.14634888	0	0.04419702	-18.70272461	498.1841171	38.77781162	0.75340112	0	-0.06562317	0	0	0	0	-0.9970542	0
0.29166663	0	0	0	1.14894592	0	0.04461256	-16.31798249	501.2454944	35.64714902	0.7558573	0	-0.0655481	0	0	0	0	-1.22735535	0
0.29999995	0	0	0	1.1518053	0	0.04514975	-13.99081546	505.0678368	32.81220477	0.75820404	0	-0.06552518	0	0	0	0	-1.45599805	0
0.30833328	0	0	0	1.15494531	0	0.04581853	-11.67531872	508.9619106	30.62195229	0.76053308	0	-0.0655694	0	0	0	0	-1.66135425	0
0.3166666	0	0	0	1.15835364	0	0.04661967	-9.38159199	512.4139353	29.27057866	0.76291241	0	-0.06566998	0	0	0	0	-1.81794556	0
0.32499993	0	0	0	1.16198755	0	0.04755228	-7.15430944	515.1520605	28.754913	0.76539197	0	-0.06583679	0	0	0	0	-1.90516382	0
0.33333325	0	0	0	1.16577478	0	0.04858841	-5.01705968	517.2049682	28.93641516	0.7679585	0	-0.06606662	0	0	0	0	-1.92054602	0
0.34166661	0	0	0	1.16961938	0	0.04968661	-2.9063979	518.856008	29.58381946	0.77058905	0	-0.06634775	0	0	0	0	-1.88348242	0
0.34999993	0	0	0	1.17345496	0	0.05079654	-0.69155339	520.5908895	30.44322383	0.77323755	0	-0.06662231	0	0	0	0	-1.82689844	0
0.35833329	0	0	0	1.17723706	0	0.05188432	1.75555121	522.7589033	31.30905643	0.77587494	0	-0.0668699	0	0	0	0	-1.78450269	0
0.36666662	0	0	0	1.18090967	0	0.05292429	4.47950975	525.545412	32.04687972	0.77846503	0	-0.06708868	0	0	0	0	-1.78227124	0
0.37499994	0	0	0	1.18440051	0	0.05387814	7.48798417	528.9629771	32.58383961	0.78098334	0	-0.06728021	0	0	0	0	-1.83778369	0
0.38333327	0	0	0	1.18769385	0	0.05472589	10.79134575	533.0679043	32.94425389	0.78341443	0	-0.06741925	0	0	0	0	-1.95287085	0
0.39166662	0	0	0	1.19085461	0	0.0554823	14.40237763	537.822505	33.24506686	0.7857702	0	-0.06749329	0	0	0	0	-2.1176189	0
0.39999995	0	0	0	1.19396655	0	0.05620554	18.31675971	543.1437144	33.67344205	0.78805206	0	-0.06749603	0	0	0	0	-2.30606836	0
0.40833327	0	0	0	1.19706311	0	0.05696498	22.53300162	549.0016728	34.51165328	0.79026392	0	-0.06744415	0	0	0	0	-2.46395654	0
0.4166666	0	0	0	1.2000752	0	0.05781479	26.98521933	555.6944596	36.05079655	0.7923847	0	-0.06734042	0	0	0	0	-2.51883887	0
0.42499995	0	0	0	1.20286072	0	0.05876559	31.54912853	563.6491511	38.15327459	0.79440137	0	-0.06719818	0	0	0	0	-2.44720166	0
0.43333328	0	0	0	1.20529443	0	0.0597868	36.04198177	573.2163142	39.71569418	0.79624371	0	-0.06698248	0	0	0	0	-2.37578271	0
0.4416666	0	0	0	1.2073645	0	0.06082642	40.7214951	584.317351	40.01808292	0.79786475	0	-0.0666713	0	0	0	0	-2.42190161	0
0.44999993	0	0	0	1.2091709	0	0.06183884	45.96678382	596.6852295	39.18202104	0.79926227	0	-0.06625665	0	0	0	0	-2.57421045	0
0.45833328	0	0	0	1.21087915	0	0.06279654	51.77958748	610.0508754	37.50872412	0.80048322	0	-0.06577673	0	0	0	0	-2.78897363	0
0.46666661	0	0	0	1.21274536	0	0.06369835	57.98753046	624.1988199	35.46272972	0.8015766	0	-0.06528442	0	0	0	0	-3.02535718	0
0.47499993	0	0	0	1.21511865	0	0.06458998	64.41516689	638.7360796	33.44643731	0.80259161	0	-0.06484088	0	0	0	0	-3.25144165	0
0.48333326	0	0	0	1.21842456	0	0.06556178	71.148362	653.1477171	31.66317338	0.80354279	0	-0.06446649	0	0	0	0	-3.45084814	0
0.49166662	0	0	0	1.22306677	0	0.06668849	78.34376684	666.8041542	30.21207238	0.80443951	0	-0.06418542	0	0	0	0	-3.61173682	0
0.49999994	0	0	0	1.22920313	0	0.06794109	85.93984411	679.1345448	29.16411217	0.80528802	0	-0.06399457	0	0	0	0	-3.71394653	0
0.50833327	0	0	0	1.23649512	0	0.06925272	93.86754596	689.3453652	28.57895355	0.80610773	0	-0.06389789	0	0	0	0	-3.73584058	0
0.51666665	0	0	0	1.2443114	0	0.07062285	102.1075452	696.4850574	28.43634305	0.80690723	0	-0.06389307	0	0	0	0	-3.66947656	0
0.52499998	0	0	0	1.25178735	0	0.07187766	110.6832813	699.5333697	28.55604504	0.80770837	0	-0.06397421	0	0	0	0	-3.53064722	0
0.5333333	-1.16911069	17.06658886	-0.24880028	1.25757703	0	0.07251291	119.466133	697.5174892	28.62498532	0.80853845	0	-0.0640817	0	0.01148767	0	0	-3.35608057	0
0.54166663	-4.52766846	74.58389152	1.16328021	1.26137488	0	0.07239574	128.0065054	689.1455239	28.27656052	0.80947382	0	-0.06415289	0	0.05654239	0	0	-3.17432251	0
0.54999995	-10.42488852	162.086184	4.71292091	1.26399719	0	0.07188954	135.7662102	672.6396563	26.98171937	0.81056409	0	-0.06412155	0	0.1341604	0	0	-3.00478906	0
0.55833328	-18.52908949	238.2573577	9.77684842	1.26619495	0	0.07131264	141.7581724	646.1592589	24.31192082	0.81184003	0	-0.063931	0	0.18835413	0	0	-2.84632666	0
0.5666666	-29.06923295	284.8892005	13.97959781	1.2687373	0	0.07078703	145.1130241	608.4023998	20.17600299	0.81326434	0	-0.06353775	0	0.16994922	0	0	-2.66920361	0
0.57499993	-40.72400768	312.6778557	16.36239167	1.27235938	0	0.07060568	145.2818093	558.7628718	14.49993276	0.81473199	0	-0.06292834	0	0.05905786	0	0	-2.43928906	0
0.58333325	-51.33213004	337.1024323	17.40670142	1.2779093	0	0.07115053	141.2910906	497.4125919	7.22141255	0.8161134	0	-0.06206354	0	-0.11089453	0	0	-2.14807007	0
0.59166658	-62.03144841	371.2310105	16.63824259	1.28526465	0	0.07236258	131.7898586	425.4339119	-0.92942836	0.81736023	0	-0.06094144	0	-0.22208643	0	0	-1.8009585	0
0.5999999	-75.8866902	415.675491	13.65461494	1.29309558	0	0.07373622	116.1958364	344.9685533	-8.16663057	0.81849243	0	-0.05962619	0	-0.15324731	0	0	-1.41803687	0
0.60833323	-92.18953873	464.4630118	8.56841922	1.30047827	0	0.07505363	94.95716708	259.9941997	-12.43193914	0.81968329	0	-0.05826834	0	0.13595178	0	0	-1.03152344	0
0.61666662	-107.5379552	516.0329162	1.33637001	1.30676892	0	0.0763152	69.28487887	177.9157365	-12.6373414	0.82149249	0	-0.05701013	0	0.54315051	0	0	-0.67377484	0
0.62499994	-119.1665809	566.9054706	-6.37575953	1.31157715	0	0.07745935	42.02895491	109.1725975	-9.53861495	0.82544238	0	-0.05596838	0	0.8967998	0	0	-0.37746246	0
0.63333327	-125.389955	610.6818037	-12.82590446	1.31501355	0	0.07844606	18.93333991	62.11360403	-5.53378589	0.83397198	0	-0.05513452	0	1.17506348	0	0	-0.16668393	0
0.64166659	-126.1462944	644.549342	-18.10683408	1.31746863	0	0.07934158	4.38117841	36.71954824	-2.67754727	0.84755719	0	-0.05475677	0	1.47810962	0	0	-0.0346293	0
0.64999992	-122.5555824	667.696557	-22.99555215	1.31937219	0	0.08023904	-2.19267754	24.79062086	-1.32320615	0.85959009	0	-0.0553743	0	1.83807153	0	0	0.02878477	0
0.6583333	-116.1269684	680.2318982	-27.6870568	1.3210835	0	0.08118988	-3.77861289	18.07005918	-0.90772853	0.86547681	0	-0.0572103	0	2.1849729	0	0	0.03624763	0
0.66666663	-108.5087459	683.7624663	-32.00169366	1.32286975	0	0.08219724	-3.2122638	12.5486307	-0.67367334	0.8739494	0	-0.0585322	0	2.46127026	0	0	0.0252786	0
0.67499995	-101.031665	680.2139242	-35.52670944	1.32490393	0	0.08323573	-1.95677437	7.31498027	-0.32981161	0.88775604	0	-0.05865466	0	2.65814771	0	0	0.01410813	0
0.68333328	-94.31308375	671.4149425	-37.67867365	1.32729541	0	0.08426173	0	0	0	0.89945483	0	-0.05800281	0	2.79003442	0	0	0	0
0.6916666	-88.26171613	659.3370327	-38.01348158	1.33004663	0	0.08522237	0	0	0	0.90564209	0	-0.05708374	0	2.87410889	0	0	0	0
0.69999993	-82.4064733	645.6987288	-36.52839576	1.33304102	0	0.08608394	0	0	0	0.90837469	0	-0.0559335	0	2.93053442	0	0	0	0
0.70833325	-76.34708903	631.3205948	-33.74046789	1.33613367	0	0.08685117	0	0	0	0.9097937	0	-0.0546178	0	2.97042432	0	0	0	0
0.71666658	-70.05635459	615.8957329	-30.50704363	1.33924365	0	0.0875752	0	0	0	0.91092053	0	-0.0532569	0	2.99887793	0	0	0	0
0.72499996	-63.73950679	598.8360015	-27.60258371	1.34239539	0	0.08832446	0	0	0	0.91209576	0	-0.05201431	0	3.01471338	0	0	0	0
0.73333329	-57.58168043	580.1288181	-25.45990552	1.34566968	0	0.08916046	0	0	0	0.91340277	0	-0.05100223	0	3.00684863	0	0	0	0
0.74166662	-51.73800614	560.5406061	-24.23297169	1.34913782	0	0.09010304	0	0	0	0.91483514	0	-0.05025629	0	2.96448438	0	0	0	0
0.74999994	-46.3857526	541.086524	-23.90273849	1.35279333	0	0.09113524	0	0	0	0.91629993	0	-0.04974457	0	2.88657617	0	0	0	0
0.75833327	-41.68863703	522.4861704	-24.32540917	1.35656677	0	0.0922193	0	0	0	0.91766833	0	-0.04944534	0	2.78165332	0	0	0	0
0.76666659	-37.67331223	505.347697	-25.29925072	1.36039832	0	0.09332793	0	0	0	0.91886035	0	-0.04933151	0	2.65925464	0	0	0	0
0.77499992	-34.1951151	490.3730473	-26.60871878	1.36424463	0	0.09442987	0	0	0	0.91987781	0	-0.04935416	0	2.52465576	0	0	0	0
0.7833333	-31.01883991	478.2100886	-28.00929894	1.36804272	0	0.09547519	0	0	0	0.92075647	0	-0.04944824	0	2.38609961	0	0	0	0
0.79166663	-27.93086394	469.2015511	-29.27438089	1.37169812	0	0.09642105	0	0	0	0.92156763	0	-0.04955383	0	2.25936694	0	0	0	0
0.79999995	-24.92178901	463.2931882	-30.2498209	1.37513391	0	0.09723732	0	0	0	0.92236517	0	-0.0496001	0	2.16214014	0	0	0	0
0.80833328	-22.10651827	460.1230661	-30.89384598	1.37830505	0	0.09792056	0	0	0	0.92317224	0	-0.04955438	0	2.10808374	0	0	0	0
0.8166666	-19.49105718	459.3359996	-31.23453769	1.38119531	0	0.09847231	0	0	0	0.92400269	0	-0.04941519	0	2.09743701	0	0	0	0
0.82499993	-16.95149831	460.7312773	-31.32458955	1.38381934	0	0.09890012	0	0	0	0.92487109	0	-0.04918573	0	2.12263721	0	0	0	0
0.83333325	-14.36762765	464.1224588	-31.26522653	1.38622339	0	0.09922887	0	0	0	0.92579089	0	-0.04886044	0	2.17708252	0	0	0	0
0.84166658	-11.66827896	469.2835359	-31.20977729	1.38845496	0	0.09947176	0	0	0	0.92677008	0	-0.04845404	0	2.25079736	0	0	0	0
0.84999996	-8.79987874	475.7948393	-31.32497627	1.39055603	0	0.09964919	0	0	0	0.92781543	0	-0.047983	0	2.32733032	0	0	0	0
0.85833329	-5.75043487	483.1121205	-31.70566785	1.39257813	0	0.09979575	0	0	0	0.92895947	0	-0.0474892	0	2.38939404	0	0	0	0
0.86666662	-2.59209513	490.9192901	-32.31217705	1.39457202	0	0.09992909	0	0	0	0.93025177	0	-0.04703113	0	2.43456055	0	0	0	0
0.87499994	0.53117327	499.2447049	-32.95976476	1.3965896	0	0.10003549	0	0	0	0.93174591	0	-0.04666153	0	2.47276245	0	0	0	0
0.88333327	3.55583022	508.1999589	-33.45448182	1.39865234	0	0.10009749	0	0	0	0.93346729	0	-0.0463941	0	2.5129292	0	0	0	0
